<?xml version="1.0" standalone="no"?>
<!DOCTYPE svg PUBLIC "-//W3C//DTD SVG 20010904//EN"
 "http://www.w3.org/TR/2001/REC-SVG-20010904/DTD/svg10.dtd">
<svg version="1.0" xmlns="http://www.w3.org/2000/svg"
 width="1103.000000pt" height="563.000000pt" viewBox="0 0 1103.000000 563.000000"
 preserveAspectRatio="xMidYMid meet">

<g transform="translate(0.000000,563.000000) scale(0.100000,-0.100000)"
fill="#000000" stroke="none">
<path d="M2860 5439 c-58 -24 -90 -91 -70 -144 11 -28 777 -812 834 -852 17
-13 58 -33 91 -45 l60 -23 1306 -5 1305 -5 76 -38 c133 -65 186 -154 175 -294
-11 -141 -79 -226 -222 -276 -20 -8 -331 -13 -948 -17 l-919 -5 -29 -33 c-23
-26 -29 -41 -29 -80 0 -26 4 -52 8 -58 4 -7 187 -194 407 -418 425 -432 447
-450 565 -476 40 -8 191 -11 545 -8 412 4 501 7 560 21 291 69 521 189 714
372 116 111 195 216 261 346 166 333 185 716 55 1106 -82 247 -187 430 -337
588 -135 143 -273 233 -442 290 -187 63 -43 59 -2081 61 -1228 2 -1868 0
-1885 -7z"/>
<path d="M1934 1426 c-315 -72 -531 -349 -511 -655 14 -221 148 -420 348 -520
111 -56 205 -75 342 -69 187 8 321 70 453 210 73 78 133 190 153 286 66 317
-125 633 -444 732 -90 28 -254 36 -341 16z m312 -270 c293 -145 291 -558 -4
-703 -71 -36 -82 -38 -166 -38 -115 1 -184 26 -260 96 -128 117 -167 279 -106
442 23 62 98 152 156 188 114 70 256 76 380 15z"/>
<path d="M3495 1426 c-251 -58 -444 -243 -500 -477 -32 -137 -10 -305 57 -432
20 -38 64 -94 113 -143 131 -132 280 -194 470 -194 119 0 214 23 320 78 97 50
219 173 267 270 173 345 0 752 -373 876 -102 34 -259 44 -354 22z m300 -264
c80 -38 152 -108 191 -187 27 -55 29 -69 29 -170 0 -101 -2 -115 -28 -168 -40
-80 -112 -151 -194 -190 -62 -29 -77 -32 -163 -32 -88 0 -101 3 -162 33 -85
42 -148 105 -190 190 -31 62 -33 74 -33 167 0 93 2 105 33 167 52 107 143 184
251 215 75 21 189 10 266 -25z"/>
<path d="M8978 1421 c-83 -27 -139 -63 -196 -125 -59 -66 -82 -125 -82 -216 0
-180 94 -271 365 -355 66 -21 140 -47 164 -58 107 -50 107 -172 -1 -229 -36
-19 -59 -23 -133 -23 -77 0 -98 4 -148 27 -32 15 -72 39 -89 53 -16 14 -39 25
-51 25 -30 0 -146 -126 -139 -152 5 -22 87 -86 152 -118 89 -45 153 -62 260
-67 229 -12 410 78 471 235 29 75 32 195 5 271 -38 110 -128 170 -355 236
-193 56 -231 81 -231 151 0 77 69 134 162 134 72 0 117 -14 177 -54 l50 -34
38 28 c67 49 115 105 111 131 -4 28 -103 98 -185 129 -83 32 -264 38 -345 11z"/>
<path d="M100 1410 c-13 -8 -15 -87 -18 -596 -2 -430 1 -590 9 -600 9 -11 61
-14 264 -14 218 0 262 3 331 20 194 49 347 163 417 310 44 94 57 156 57 273 0
176 -51 300 -174 423 -93 93 -203 154 -321 179 -81 17 -540 21 -565 5z m577
-270 c74 -37 145 -111 181 -188 37 -80 42 -194 12 -275 -30 -79 -107 -157
-197 -200 -64 -30 -76 -32 -195 -35 l-128 -4 0 366 0 366 133 0 c129 0 136 -1
194 -30z"/>
<path d="M4643 1409 c-10 -10 -13 -145 -13 -605 0 -530 2 -592 16 -598 9 -3
65 -6 124 -6 98 0 110 2 120 19 6 12 10 98 10 211 l0 191 107 -3 108 -3 116
-205 116 -205 109 -8 c113 -8 154 0 154 28 0 8 -52 107 -116 221 l-116 206 23
16 c64 44 112 100 147 170 35 71 37 81 36 166 -1 186 -91 323 -251 388 -55 22
-72 23 -368 26 -239 2 -313 0 -322 -9z m606 -257 c94 -50 95 -207 2 -264 -33
-21 -50 -23 -198 -26 l-163 -4 0 156 0 156 163 0 c138 0 167 -3 196 -18z"/>
<path d="M6017 1405 c-15 -15 -17 -71 -17 -605 0 -527 2 -588 16 -594 9 -3
127 -6 263 -6 216 0 258 3 327 20 288 74 456 267 471 540 17 294 -154 537
-442 631 -64 21 -93 23 -336 27 -237 3 -268 2 -282 -13z m574 -262 c72 -36
148 -114 184 -188 26 -53 29 -71 30 -155 0 -84 -3 -101 -27 -146 -38 -72 -107
-137 -186 -176 -63 -31 -73 -33 -194 -37 l-128 -3 0 366 0 366 133 0 c125 0
137 -2 188 -27z"/>
<path d="M7722 1403 c-21 -20 -462 -1134 -462 -1169 0 -30 16 -34 146 -34
l114 0 15 33 c8 17 32 79 53 137 l39 105 234 3 234 2 44 -127 c24 -71 48 -134
54 -140 7 -9 46 -13 133 -13 109 0 124 2 133 18 13 24 -428 1158 -460 1185
-18 14 -41 17 -139 17 -98 0 -121 -3 -138 -17z m211 -506 l64 -177 -138 0
-138 0 14 38 c32 89 115 304 121 313 3 6 7 9 9 7 2 -2 32 -83 68 -181z"/>
<path d="M9920 1410 c-13 -8 -15 -87 -17 -592 -2 -360 1 -589 7 -598 7 -11 34
-16 110 -18 56 -2 112 -1 126 2 l24 6 0 245 0 245 255 0 255 0 0 -244 c0 -213
2 -245 16 -250 9 -3 65 -6 124 -6 98 0 110 2 120 19 6 13 10 220 10 604 0 524
-2 585 -16 591 -30 11 -229 7 -242 -6 -9 -9 -12 -77 -12 -245 l0 -233 -255 0
-255 0 0 229 c0 195 -2 232 -16 245 -12 13 -38 16 -117 16 -56 0 -109 -5 -117
-10z"/>
</g>
</svg>
