<?xml version="1.0" standalone="no"?>
<!DOCTYPE svg PUBLIC "-//W3C//DTD SVG 20010904//EN"
 "http://www.w3.org/TR/2001/REC-SVG-20010904/DTD/svg10.dtd">
<svg version="1.0" xmlns="http://www.w3.org/2000/svg"
 width="900.000000pt" height="507.000000pt" viewBox="0 0 900.000000 507.000000"
 preserveAspectRatio="xMidYMid meet">

<g transform="translate(0.000000,507.000000) scale(0.100000,-0.100000)"
fill="#000000" stroke="none">
<path d="M224 3608 c-16 -11 -55 -46 -87 -77 l-57 -55 0 -212 c0 -446 76 -919
214 -1334 51 -152 47 -147 200 -251 184 -124 380 -203 556 -223 151 -18 417
74 635 219 149 99 158 110 210 275 125 393 186 746 205 1175 5 121 10 247 10
280 l0 60 -82 79 -82 79 -66 -6 c-36 -4 -114 -13 -175 -21 -436 -59 -891 -54
-1313 14 -149 24 -133 24 -168 -2z m422 -1013 c137 -24 212 -53 266 -105 33
-32 48 -56 53 -83 15 -77 -39 -190 -117 -243 -38 -27 -48 -29 -132 -29 -84 0
-97 3 -168 37 -85 41 -150 99 -179 161 -35 79 -17 207 36 241 56 37 116 42
241 21z m1101 -15 c64 -29 85 -69 80 -155 -5 -85 -28 -135 -90 -192 -54 -50
-107 -78 -184 -98 -79 -21 -120 -19 -178 9 -89 41 -156 141 -157 235 0 81 46
142 134 175 125 48 320 60 395 26z"/>
<path d="M3217 3395 c-275 -52 -508 -233 -632 -490 -121 -249 -118 -539 7
-792 105 -211 293 -371 528 -449 80 -27 96 -28 255 -29 151 0 178 3 245 24
245 77 430 232 544 456 19 39 35 66 36 61 0 -5 -18 -116 -41 -248 l-41 -240
20 -27 19 -26 179 -3 c98 -1 189 0 202 3 12 3 27 16 32 28 6 12 37 178 70 369
32 191 67 364 76 384 35 74 101 114 188 114 43 0 71 13 85 38 5 10 23 98 40
196 28 163 30 180 16 206 -19 36 -48 44 -123 35 -216 -26 -394 -115 -511 -255
-50 -60 -111 -167 -136 -240 -11 -33 -12 -30 -19 58 -8 106 -30 200 -78 327
-31 84 -35 90 -64 93 -20 2 -162 -46 -415 -139 -211 -77 -392 -145 -401 -150
-29 -16 -21 -59 43 -234 53 -144 64 -166 86 -171 23 -6 139 31 336 108 l48 18
-6 -22 c-66 -214 -285 -354 -495 -318 -142 25 -269 122 -331 255 -37 79 -49
199 -29 286 53 223 281 380 493 339 107 -21 132 -23 145 -8 20 25 132 351 126
370 -3 10 -15 23 -27 30 -87 46 -333 69 -470 43z"/>
<path d="M7848 3389 c-29 -17 -35 -38 -67 -230 -17 -101 -34 -196 -37 -210
l-5 -25 -72 24 c-57 20 -92 25 -167 25 -270 0 -516 -157 -639 -407 l-40 -81 6
60 c11 127 -43 280 -120 337 -57 42 -170 93 -238 108 -95 21 -247 9 -359 -29
-121 -41 -192 -82 -255 -146 -94 -95 -150 -231 -190 -459 -77 -441 -114 -677
-109 -691 12 -30 43 -35 212 -35 148 0 171 2 184 18 10 11 40 161 87 441 40
233 78 436 85 450 44 83 172 119 247 68 29 -19 34 -29 37 -68 2 -25 -22 -194
-52 -375 -30 -181 -60 -369 -67 -418 -12 -88 -12 -89 10 -107 21 -17 42 -19
190 -19 122 0 172 4 185 13 14 10 27 69 62 273 24 142 44 266 45 274 0 8 9
-24 19 -72 27 -129 70 -208 165 -304 120 -121 245 -174 410 -174 294 1 563
196 665 483 10 28 19 47 19 41 1 -6 -15 -103 -34 -215 -41 -241 -43 -269 -14
-295 19 -17 38 -19 205 -19 172 0 185 1 204 21 18 17 32 82 85 389 57 334 66
372 92 409 37 54 101 86 170 86 58 0 88 19 98 62 12 53 55 328 55 351 0 16
-10 34 -27 47 -25 20 -35 21 -97 15 -297 -29 -516 -183 -634 -445 -24 -53 -32
-65 -28 -40 62 352 136 795 136 811 0 11 -11 31 -25 44 -24 25 -26 25 -202 25
-101 0 -185 -5 -195 -11z m-300 -835 c134 -56 184 -214 113 -359 -101 -204
-365 -218 -467 -25 -29 55 -25 171 8 235 33 62 89 118 148 144 55 25 145 27
198 5z"/>
<path d="M5228 2961 c-16 -14 -36 -115 -123 -636 -58 -341 -105 -632 -105
-646 0 -46 15 -50 205 -51 149 -1 179 2 192 15 10 10 25 66 39 149 36 212 162
966 175 1043 22 141 15 146 -205 143 -126 -2 -163 -5 -178 -17z"/>
<path d="M8582 1773 c12 -3 18 -17 21 -46 l4 -42 1 42 c2 30 7 43 20 46 9 3
-1 5 -23 5 -22 0 -32 -2 -23 -5z"/>
<path d="M8660 1734 c0 -25 4 -43 8 -40 5 3 7 20 5 38 l-3 33 19 -40 c21 -44
17 -46 44 25 3 8 6 -2 6 -23 1 -51 21 -38 21 14 0 49 -24 53 -43 7 l-14 -33
-7 33 c-12 50 -36 41 -36 -14z"/>
</g>
</svg>
