<?xml version="1.0" standalone="no"?>
<!DOCTYPE svg PUBLIC "-//W3C//DTD SVG 20010904//EN"
 "http://www.w3.org/TR/2001/REC-SVG-20010904/DTD/svg10.dtd">
<svg version="1.0" xmlns="http://www.w3.org/2000/svg"
 width="850.000000pt" height="563.000000pt" viewBox="0 0 850.000000 563.000000"
 preserveAspectRatio="xMidYMid meet">

<g transform="translate(0.000000,563.000000) scale(0.100000,-0.100000)"
fill="#000000" stroke="none">
<path d="M5115 5600 c-835 -53 -1674 -251 -2443 -577 -192 -82 -524 -247 -689
-343 l-123 -71 0 -80 c0 -43 2 -79 5 -79 3 0 49 22 103 49 632 317 1452 580
2212 710 442 75 772 104 1210 104 424 1 667 -21 1005 -88 297 -59 514 -130
750 -245 506 -246 808 -613 892 -1084 21 -119 21 -323 -1 -444 -74 -409 -334
-787 -723 -1053 l-103 -70 0 -224 c0 -123 3 -226 8 -228 12 -8 182 72 289 135
447 266 790 707 918 1178 90 334 83 686 -21 1009 -36 112 -133 303 -205 406
-82 115 -267 302 -389 392 -435 320 -1009 513 -1750 588 -185 19 -742 27 -945
15z"/>
<path d="M6482 3258 l3 -1043 23 -58 c58 -143 192 -240 363 -263 l49 -7 0
1207 0 1206 -220 0 -220 0 2 -1042z"/>
<path d="M7300 4278 c-45 -31 -71 -68 -79 -114 -20 -112 56 -204 169 -204 102
0 170 68 170 170 0 66 -24 110 -79 147 -47 32 -135 32 -181 1z m163 -25 c90
-45 88 -201 -2 -248 -41 -21 -109 -19 -148 5 -60 36 -83 123 -50 186 20 39 38
53 84 69 40 14 70 11 116 -12z"/>
<path d="M7317 4233 c-4 -3 -7 -51 -7 -105 0 -98 0 -98 25 -98 23 0 25 4 25
40 0 51 13 51 42 0 16 -28 30 -40 46 -40 27 0 27 4 1 47 -20 33 -21 35 -3 47
25 19 24 84 -1 102 -19 14 -116 20 -128 7z m101 -60 c-2 -22 -9 -29 -30 -31
-25 -3 -28 0 -28 27 0 28 3 31 31 31 27 0 30 -3 27 -27z"/>
<path d="M1250 4040 l0 -210 220 0 220 0 -2 208 -3 207 -217 3 -218 2 0 -210z"/>
<path d="M3810 3188 c0 -947 1 -952 55 -1061 57 -113 141 -185 266 -228 55
-19 92 -23 252 -27 l187 -4 0 186 0 186 -115 0 c-133 0 -163 10 -189 64 -14
30 -16 88 -16 485 l0 451 160 0 160 0 0 175 0 175 -160 0 -160 0 0 235 0 235
-220 0 -220 0 0 -872z"/>
<path d="M804 3883 c-482 -473 -730 -949 -785 -1510 -27 -275 22 -640 120
-894 132 -340 386 -644 731 -874 408 -271 955 -454 1600 -535 481 -60 1041
-65 1600 -14 973 88 2015 364 2778 734 l202 99 0 320 c0 177 -2 321 -5 321 -2
0 -28 -14 -57 -31 -96 -57 -440 -223 -598 -288 -754 -311 -1640 -524 -2485
-597 -254 -21 -938 -30 -1172 -15 -917 61 -1569 287 -1964 681 -208 207 -320
414 -390 715 -26 117 -37 401 -20 542 51 413 234 830 511 1164 l70 84 0 108
c0 59 -4 107 -8 107 -4 0 -62 -53 -128 -117z"/>
<path d="M5334 3606 c-95 -18 -135 -32 -219 -73 -302 -150 -461 -494 -424
-917 16 -191 60 -330 143 -455 119 -179 309 -284 565 -313 118 -13 262 -3 376
27 121 31 286 127 368 213 l28 29 -132 126 -131 126 -67 -51 c-105 -81 -188
-108 -331 -108 -140 0 -257 54 -321 147 -36 51 -69 147 -69 198 l0 32 68 6
c37 3 280 4 540 3 260 -1 477 1 483 5 20 12 5 340 -19 431 -48 177 -105 281
-217 393 -87 87 -176 139 -290 170 -82 23 -262 28 -351 11z m230 -360 c124
-38 199 -141 221 -303 l7 -53 -337 0 -338 0 7 55 c22 190 154 311 342 314 28
1 72 -5 98 -13z"/>
<path d="M1250 2907 c0 -742 0 -750 57 -845 34 -59 97 -119 156 -149 45 -22
182 -63 214 -63 11 0 13 149 13 870 l0 870 -220 0 -220 0 0 -683z"/>
<path d="M2070 2730 l0 -860 220 0 220 0 0 686 0 685 218 -3 c205 -3 219 -4
253 -26 70 -43 69 -28 69 -722 l0 -620 221 0 220 0 -3 653 c-4 583 -6 658 -21
711 -40 135 -126 245 -237 301 -101 51 -143 55 -672 55 l-488 0 0 -860z"/>
</g>
</svg>
