<?xml version="1.0" standalone="no"?>
<!DOCTYPE svg PUBLIC "-//W3C//DTD SVG 20010904//EN"
 "http://www.w3.org/TR/2001/REC-SVG-20010904/DTD/svg10.dtd">
<svg version="1.0" xmlns="http://www.w3.org/2000/svg"
 width="200.000000pt" height="200.000000pt" viewBox="0 0 200.000000 200.000000"
 preserveAspectRatio="xMidYMid meet">

<g transform="translate(0.000000,200.000000) scale(0.100000,-0.100000)"
fill="#000000" stroke="none">
<path d="M739 1699 c-154 -23 -281 -89 -401 -209 -72 -73 -94 -103 -131 -181
-73 -150 -77 -187 -77 -644 l0 -395 357 2 358 3 3 357 2 358 -206 0 -207 0 6
55 c11 108 84 225 177 285 55 35 155 70 201 70 l30 0 -3 153 -3 152 -25 1
c-14 1 -50 -2 -81 -7z"/>
<path d="M1745 1695 c-276 -51 -488 -245 -567 -520 -22 -78 -23 -92 -23 -490
l0 -410 358 -3 357 -2 0 360 0 360 -205 0 c-230 0 -213 -7 -194 82 25 118 118
237 226 288 26 12 76 27 111 33 l62 11 0 153 0 153 -27 -1 c-16 0 -59 -7 -98
-14z"/>
</g>
</svg>
