<?xml version="1.0" standalone="no"?>
<!DOCTYPE svg PUBLIC "-//W3C//DTD SVG 20010904//EN"
 "http://www.w3.org/TR/2001/REC-SVG-20010904/DTD/svg10.dtd">
<svg version="1.0" xmlns="http://www.w3.org/2000/svg"
 width="300.000000pt" height="81.000000pt" viewBox="0 0 300.000000 81.000000"
 preserveAspectRatio="xMidYMid meet">

<g transform="translate(0.000000,81.000000) scale(0.100000,-0.100000)"
fill="#000000" stroke="none">
<path d="M370 512 c0 -326 0 -326 -60 -357 -87 -45 -180 22 -167 119 8 56 52
96 107 96 l40 0 0 70 0 70 -48 0 c-171 0 -293 -198 -218 -355 91 -193 347
-207 454 -26 26 45 27 52 30 224 2 97 4 177 5 177 1 0 29 -11 62 -25 33 -13
77 -25 98 -25 l38 0 -3 66 -3 67 -50 12 c-62 16 -120 74 -137 140 l-12 45 -68
0 -68 0 0 -298z"/>
<path d="M890 530 l0 -49 58 -3 57 -3 3 -182 2 -183 55 0 55 0 0 185 0 185 45
0 c48 0 54 6 71 75 l6 25 -176 0 -176 0 0 -50z"/>
<path d="M1292 564 c-24 -17 -30 -62 -10 -82 21 -21 66 -14 83 12 24 36 -2 86
-44 86 -3 0 -17 -7 -29 -16z"/>
<path d="M1427 574 c-4 -4 -7 -110 -7 -236 l0 -228 60 0 60 0 0 64 c0 43 5 67
14 76 15 12 25 2 96 -103 24 -35 27 -37 83 -37 44 0 56 3 51 12 -4 7 -36 55
-71 105 -34 51 -63 97 -63 102 0 5 30 39 68 75 l67 66 -70 0 -71 0 -49 -50
-50 -51 -5 103 -5 103 -50 3 c-28 2 -54 0 -58 -4z"/>
<path d="M1824 566 c-3 -8 -4 -29 -2 -48 3 -33 3 -33 61 -36 l57 -3 0 -184 0
-185 55 0 55 0 2 183 3 182 46 3 c44 3 47 5 58 41 6 21 11 43 11 50 0 8 -50
11 -170 11 -137 0 -172 -3 -176 -14z"/>
<path d="M2630 346 l0 -236 55 0 55 0 0 64 c0 46 4 67 16 77 10 8 18 9 22 2 4
-5 27 -40 52 -76 l45 -66 58 -1 c31 0 57 2 57 5 0 3 -32 53 -72 110 l-72 105
69 70 69 70 -70 0 -70 0 -49 -50 -50 -51 -5 103 -5 103 -52 3 -53 3 0 -235z"/>
<path d="M2285 471 c-186 -86 -130 -361 74 -361 148 0 242 136 182 265 -46 99
-158 141 -256 96z m140 -103 c15 -14 28 -38 31 -59 5 -30 1 -42 -23 -69 -40
-45 -95 -45 -135 -1 -38 42 -37 83 1 122 37 37 88 39 126 7z"/>
<path d="M1270 271 l0 -161 55 0 56 0 -3 158 -3 157 -52 3 -53 3 0 -160z"/>
</g>
</svg>
