<?xml version="1.0" standalone="no"?>
<!DOCTYPE svg PUBLIC "-//W3C//DTD SVG 20010904//EN"
 "http://www.w3.org/TR/2001/REC-SVG-20010904/DTD/svg10.dtd">
<svg version="1.0" xmlns="http://www.w3.org/2000/svg"
 width="2683.000000pt" height="1667.000000pt" viewBox="0 0 2683.000000 1667.000000"
 preserveAspectRatio="xMidYMid meet">

<g transform="translate(0.000000,1667.000000) scale(0.100000,-0.100000)"
fill="#000000" stroke="none">
<path d="M3736 11064 c-4 -9 1 -80 11 -158 23 -191 23 -518 -1 -680 -56 -390
-194 -689 -429 -933 -112 -116 -204 -189 -339 -269 -93 -55 -316 -154 -347
-154 -19 0 -65 71 -110 170 -60 134 -109 337 -135 558 -8 67 -17 126 -21 131
-13 23 -50 9 -144 -53 -167 -109 -289 -217 -438 -391 -258 -299 -452 -684
-525 -1045 -20 -103 -23 -142 -23 -365 1 -212 4 -270 23 -379 46 -268 106
-456 216 -681 332 -675 930 -1092 1726 -1202 156 -21 552 -24 685 -5 573 83
1011 301 1391 693 460 475 688 1137 635 1839 -55 720 -312 1343 -788 1907
-329 391 -798 760 -1260 992 -89 44 -117 50 -127 25z"/>
<path d="M25377 11065 c-119 -33 -233 -115 -297 -215 -98 -152 -98 -377 -1
-529 173 -269 560 -316 792 -95 97 94 149 218 149 359 0 142 -46 253 -144 350
-105 103 -212 146 -366 144 -47 0 -107 -7 -133 -14z m295 -117 c154 -71 245
-251 217 -427 -21 -134 -97 -237 -217 -294 -60 -29 -76 -32 -157 -32 -80 0
-97 4 -157 32 -321 151 -292 629 45 739 68 22 200 13 269 -18z"/>
<path d="M25375 10831 l-50 -6 -3 -247 -2 -248 60 0 60 0 0 101 0 102 52 -6
c67 -8 92 -32 108 -105 19 -90 22 -92 91 -92 53 0 60 2 55 18 -3 9 -12 46 -21
82 -20 77 -40 114 -72 131 l-24 13 35 18 c53 27 69 58 64 120 -4 42 -11 57
-36 79 -49 44 -163 58 -317 40z m168 -82 c71 -19 87 -93 27 -124 -16 -8 -52
-15 -80 -15 l-50 0 0 69 c0 64 2 70 23 74 38 7 41 7 80 -4z"/>
<path d="M9880 11041 c-182 -58 -321 -192 -382 -369 -32 -94 -32 -249 0 -342
45 -132 114 -223 220 -293 100 -66 169 -89 287 -94 74 -4 117 -1 165 12 329
86 509 430 390 749 -56 148 -198 282 -351 331 -100 31 -243 34 -329 6z"/>
<path d="M17460 10015 l0 -896 -92 81 c-226 196 -452 312 -732 372 -84 18
-134 22 -296 22 -205 1 -273 -7 -440 -50 -624 -161 -1062 -665 -1210 -1391
-41 -203 -53 -360 -47 -618 6 -251 19 -369 63 -555 181 -769 701 -1272 1407
-1360 140 -18 435 -8 548 19 267 61 501 182 709 364 l85 75 3 -194 2 -194 465
0 465 0 0 2610 0 2610 -465 0 -465 0 0 -895z m-645 -1290 c214 -54 373 -144
533 -301 l112 -110 0 -712 0 -711 -50 -60 c-183 -219 -496 -366 -805 -378
-280 -11 -494 73 -685 267 -135 138 -225 308 -276 527 -35 145 -45 446 -21
598 30 188 103 387 188 512 47 69 175 199 239 243 111 75 256 131 390 150 101
14 265 3 375 -25z"/>
<path d="M7410 10015 l0 -505 -300 0 -300 0 0 -415 0 -415 299 0 300 0 4
-1122 c3 -1097 4 -1125 25 -1218 71 -321 216 -515 476 -635 284 -132 783 -125
1090 14 65 29 153 86 215 139 l35 30 -120 382 -119 382 -55 -61 c-64 -70 -129
-105 -233 -127 -170 -36 -290 22 -351 170 -21 51 -21 60 -24 1049 l-2 997 370
0 370 0 0 415 0 415 -367 2 -368 3 -3 503 -2 502 -470 0 -470 0 0 -505z"/>
<path d="M12898 9585 c-326 -45 -641 -183 -905 -398 -45 -37 -85 -67 -88 -67
-3 0 -5 88 -5 195 l0 195 -465 0 -465 0 0 -1905 0 -1905 465 0 465 0 0 1305 0
1306 98 97 c160 160 339 266 539 319 128 33 343 38 468 9 245 -55 385 -206
430 -461 13 -75 15 -260 15 -1331 l0 -1244 465 0 465 0 0 1411 c0 1223 -2
1425 -16 1516 -73 492 -349 808 -808 923 -198 50 -450 63 -658 35z"/>
<path d="M20316 9590 c-656 -75 -1204 -455 -1495 -1036 -390 -780 -254 -1791
321 -2376 299 -305 690 -492 1152 -553 150 -19 461 -20 628 0 327 38 665 148
903 295 99 60 241 169 299 228 l49 51 -213 308 c-117 169 -216 312 -221 317
-4 5 -33 -14 -65 -43 -172 -158 -353 -258 -589 -326 -295 -85 -597 -78 -857
19 -227 85 -434 270 -540 481 -33 64 -76 184 -93 258 l-13 57 1415 0 1415 0
-5 283 c-4 224 -9 307 -25 402 -85 487 -279 872 -587 1163 -253 239 -557 390
-915 453 -131 24 -434 33 -564 19z m405 -795 c367 -64 646 -303 743 -637 14
-47 26 -108 28 -135 l3 -48 -957 -3 c-870 -2 -958 -1 -958 14 0 32 40 171 70
244 126 307 370 507 687 564 104 19 281 19 384 1z"/>
<path d="M24543 9589 c-316 -31 -632 -178 -909 -425 l-84 -75 0 211 0 210
-470 0 -470 0 0 -1905 0 -1905 470 0 470 0 0 1281 0 1280 78 77 c205 205 546
352 816 352 44 0 126 -7 180 -15 55 -8 105 -15 113 -15 11 0 13 81 11 468 l-3
467 -55 1 c-30 1 -96 -2 -147 -7z"/>
<path d="M9570 7605 l0 -1905 470 0 470 0 0 1905 0 1905 -470 0 -470 0 0
-1905z"/>
</g>
</svg>
